<svg height="642pt" viewBox="-73 0 642 642.50174" width="642pt" xmlns="http://www.w3.org/2000/svg"><path d="m462.617188 396.976562c-30.359376 0-46.21875-13.5-46.21875-26.828124.28125-7.257813 4.128906-13.910157 10.28125-17.78125 10.691406-6.828126 23.269531-10.101563 35.9375-9.355469h4.460937c16.042969 0 29.054687-13.003907 29.054687-29.058594 0-16.042969-13.011718-29.050781-29.054687-29.050781h-95.097656v-48.757813c-.035157-27.875-22.625-50.460937-50.496094-50.496093-26.023437 0-47.644531-5.699219-62.574219-16.472657-11.410156-7.261719-18.566406-19.636719-19.144531-33.152343 0-23.910157 25.582031-49.5625 81.71875-49.5625h7.128906c16.554688 1.886718 32.742188-5.886719 41.617188-20.003907 8.878906-14.105469 8.878906-32.058593 0-46.175781-8.875-14.105469-25.0625-21.890625-41.617188-20h-285.554687c-21.90625 2.496094-38.453125 21.035156-38.453125 43.089844 0 22.050781 16.546875 40.59375 38.453125 43.089844 56.132812 0 81.722656 25.714843 81.722656 49.5625-.597656 13.53125-7.769531 25.910156-19.207031 33.152343-14.933594 10.773438-36.554688 16.472657-62.578125 16.472657-1.488282.035156-2.925782.511718-4.148438 1.367187-22.660156 5.511719-38.601562 25.8125-38.597656 49.128906v295.890625c.035156 27.875 22.617188 50.460938 50.492188 50.496094h215.046874v26.453125c.03125 18.503906 15.019532 33.488281 33.515626 33.515625h163.3125c18.496093-.027344 33.484374-15.011719 33.515624-33.515625v-178.429687c0-18.519532-14.996093-33.542969-33.515624-33.578126zm-49.070313 0h-69.636719c8.039063-6.601562 12.699219-16.453124 12.699219-26.859374 0-10.398438-4.660156-20.253907-12.699219-26.855469h69.636719c-7.996094 6.625-12.621094 16.46875-12.621094 26.855469 0 10.390624 4.625 20.234374 12.621094 26.859374zm67.097656-82.773437c-.097656 7.421875-6.144531 13.386719-13.566406 13.386719h-172.230469c-7.496094 0-13.570312-6.078125-13.570312-13.566406 0-7.496094 6.074218-13.570313 13.570312-13.570313h172.230469c3.628906 0 7.109375 1.457031 9.660156 4.039063 2.550781 2.585937 3.960938 6.082031 3.90625 9.710937zm-465.148437-270.921875c.027344-15.210938 12.355468-27.539062 27.5625-27.570312h285.554687c15.238281 0 27.59375 12.359374 27.59375 27.597656 0 15.242187-12.355469 27.605468-27.59375 27.605468h-285.554687c-15.234375-.039062-27.5625-12.402343-27.5625-27.632812zm99.125 138.40625c15.429687-10.203125 24.964844-27.238281 25.589844-45.722656 0-18.03125-10.039063-37.175782-31.359376-49.5625h146.527344c-21.246094 12.757812-31.351562 31.59375-31.351562 49.5625s10.105468 37.171875 31.351562 49.5625h-146.644531c2.019531-1.15625 4.003906-2.417969 5.945313-3.78125zm-64.1875 385.355469c-19.292969-.070313-34.910156-15.710938-34.9375-35.007813v-295.890625c.027344-19.320312 15.683594-34.96875 35-35.007812h270.738281c19.320313.039062 34.972656 15.6875 35.007813 35.007812v49.070313h-61.394532c-16.054687 0-29.058594 13.003906-29.058594 29.054687 0 16.046875 13.003907 29.054688 29.058594 29.054688 30.351563 0 46.214844 13.507812 46.214844 26.824219-.363281 7.179687-4.199219 13.722656-10.28125 17.539062-10.691406 6.824219-23.273438 10.105469-35.933594 9.347656-1.289062.039063-2.550781.398438-3.65625 1.054688-14.898437 3.746094-25.355468 17.113281-25.402344 32.464844v136.300781zm430.210937 41.941406c0 9.957031-8.070312 18.03125-18.027343 18.03125h-163.3125c-9.957032 0-18.027344-8.074219-18.027344-18.03125v-178.429687c0-9.957032 8.070312-18.027344 18.027344-18.027344h163.3125c9.957031 0 18.027343 8.070312 18.027343 18.027344zm0 0"/></svg>