<svg id="Capa_1" enable-background="new 0 0 512 512" height="512" viewBox="0 0 512 512" width="512" xmlns="http://www.w3.org/2000/svg"><g><path d="m76 30h360v482h-360z" fill="#cc5229"/><path d="m256 30h180v482h-180z" fill="#b32c11"/><g><path d="m106 60h300v422h-300z" fill="#fff7e6"/></g><path d="m256 60h150v422h-150z" fill="#ffe6cc"/><g id="_Checking_Immigration_2_"><g><path d="m316 90h-120v-30c0-32.672 26.383-60 60-60 33.74 0 60 27.604 60 60z" fill="#4c6cb5"/></g><g><path d="m173.5 186.211-33.105-33.106 21.21-21.21 11.895 11.894 34.395-34.394 21.21 21.21z" fill="#4dbfac"/></g><g><path d="m256 150h120v30h-120z" fill="#fb9"/></g><g><path d="m173.5 276.211-33.105-33.106 21.21-21.21 11.895 11.894 34.395-34.394 21.21 21.21z" fill="#4dbfac"/></g><g><path d="m256 240h120v30h-120z" fill="#fb9"/></g><g><path d="m173.5 366.211-33.105-33.106 21.21-21.21 11.895 11.894 34.395-34.394 21.21 21.21z" fill="#4dbfac"/></g><g><path d="m256 330h120v30h-120z" fill="#fb9"/></g><g><path d="m173.5 456.211-33.105-33.106 21.21-21.21 11.895 11.894 34.395-34.394 21.21 21.21z" fill="#4dbfac"/></g><g><path d="m256 420h120v30h-120z" fill="#fb9"/></g></g><path d="m316 90v-30c0-32.397-26.257-60-60-60v90z" fill="#3d4c99"/></g></svg>