<svg xmlns="http://www.w3.org/2000/svg" viewBox="0 0 810.53 222.82"><defs><style>.cls-1{fill:#213b7a;}.cls-2{fill:#45ac34;}</style></defs><title>Recurso 16</title><g id="Capa_2" data-name="Capa 2"><g id="Capa_2-2" data-name="Capa 2"><path class="cls-1" d="M198.72,38.87c-3.59-.06-7.16-.13-10.74-.23C135.37,37.21,79.2,36.11,29.39,17.32,25.22,15.75,0,6.91,0,0V161.23c15.59-19,47.57-22.34,47.57-22.34l110,1.86c-4.22-.08,4.15,50.5,5.94,55,12.24,30.7,50.26,38.54,66.52,6.59,2.34-4.6,15.6-61.67,9.29-61.56l110-1.86s32,3.35,47.57,22.34V0c0,10.29-39,20.69-44.92,22.34C302.18,36.24,250.19,39.7,198.72,38.87ZM350.36,94.52c-48.06,3.89-132.45,7.69-132.61,6.29,0,0,11.36,81.89-19,90.56-30.39-8.67-19.63-90.56-19.63-90.56L46.41,95c-4.81-.36-53-6.39-32.19-15.44,21.16-9.21,44.33-7.08,67.1-7.63q48.11-1.14,96.22-1,47.94.16,95.87,1.29c34.77.87,73.31-1.31,106.92,7.85a10.83,10.83,0,0,1,5.18,2.89c1.36,1.46,1.93,3.85.77,5.48-.88,1.24-2.46,1.72-3.93,2.09C371.89,93.12,361.07,93.66,350.36,94.52Z"/><polygon class="cls-2" points="427.31 31.53 512.83 31.53 501.22 71.65 484.33 46.31 463.21 132.89 477.99 132.89 475.88 144.5 412.53 144.5 412.53 132.44 424.66 132.9 446.25 44.21 419.78 69.29 427.31 31.53"/><path class="cls-2" d="M802.64,134.16l-7-102.63h-30.1L713.22,132.39v9.66h35.35l-.23-5.36L735.2,123.1l3.59-13.32,30.64-.47v24.38l-11.6.47v7.89h52.7v-7.89Zm-60.19-32.82L766,47.41c-.23.68,1.81,53.93,1.81,53.93Z"/><path class="cls-2" d="M607.38,31.53l48.84.56L654.75,95.9l34-64.37,48,.56v9.65l-12.92.68-22.21,98.13H652.94V134h9.29l18.58-69.34-41.25,75.92H623.47l-1.81-93.14H616.9l-13.82,77.27,12.69,14.73-33.09,1.14,12.47-16.77,18.58-83.17-5.89-.46Z"/><polygon class="cls-2" points="511.52 31.53 511.52 40.83 526.25 40.83 504.73 133.29 494.07 133.29 494.07 142.13 576.57 142.13 584.27 105.42 555.49 133.07 541.21 133.07 547.1 90.46 560.25 91.37 565.46 107.23 577.24 64.4 572.26 63.5 563.19 82.76 548.92 83.21 561.83 40.83 576.11 40.61 588.35 70.97 599 31.53 511.52 31.53"/></g></g></svg>