<svg xmlns="http://www.w3.org/2000/svg" viewBox="0 0 396.85 222.82"><defs><style>.cls-1{fill:#213b7a;}</style></defs><title>Recurso 15</title><g id="Capa_2" data-name="Capa 2"><g id="Capa_2-2" data-name="Capa 2"><path class="cls-1" d="M198.72,38.87c-3.59-.06-7.16-.13-10.74-.23C135.37,37.21,79.2,36.11,29.39,17.32,25.22,15.75,0,6.91,0,0V161.23c15.59-19,47.57-22.34,47.57-22.34l110,1.86c-4.22-.08,4.15,50.5,5.94,55,12.24,30.7,50.26,38.54,66.52,6.59,2.34-4.6,15.6-61.67,9.29-61.56l110-1.86s32,3.35,47.57,22.34V0c0,10.29-39,20.69-44.92,22.34C302.18,36.24,250.19,39.7,198.72,38.87ZM350.36,94.52c-48.06,3.89-132.45,7.69-132.61,6.29,0,0,11.36,81.89-19,90.56-30.39-8.67-19.63-90.56-19.63-90.56L46.41,95c-4.81-.36-53-6.39-32.19-15.44,21.16-9.21,44.33-7.08,67.1-7.63q48.11-1.14,96.22-1,47.94.16,95.87,1.29c34.77.87,73.31-1.31,106.92,7.85a10.83,10.83,0,0,1,5.18,2.89c1.36,1.46,1.93,3.85.77,5.48-.88,1.24-2.46,1.72-3.93,2.09C371.89,93.12,361.07,93.66,350.36,94.52Z"/></g></g></svg>