<svg xmlns="http://www.w3.org/2000/svg" viewBox="0 0 396.85 229.03"><defs><style>.cls-1{fill:#213b7a;}.cls-2{fill:#45ac34;}</style></defs><title>Recurso 12</title><g id="Capa_2" data-name="Capa 2"><g id="Capa_2-2" data-name="Capa 2"><path class="cls-1" d="M198.72,45.09c-3.59-.06-7.16-.14-10.74-.24C135.37,43.42,79.2,42.32,29.39,23.53,25.22,22,0,13.12,0,6.21V167.44c15.59-19,47.57-22.34,47.57-22.34l110,1.86c-4.22-.08,4.15,50.5,5.94,55,12.24,30.7,50.26,38.54,66.52,6.59,2.34-4.6,15.6-61.66,9.29-61.56l110-1.86s32,3.35,47.57,22.34V6.21c0,10.3-39,20.69-44.92,22.34C302.18,42.45,250.19,45.92,198.72,45.09Zm151.64,55.65c-48.06,3.88-132.45,7.69-132.61,6.29,0,0,11.36,81.88-19,90.55C168.34,188.91,179.1,107,179.1,107L46.41,101.16c-4.81-.35-53-6.39-32.19-15.43,21.16-9.22,44.33-7.09,67.1-7.63q48.11-1.16,96.22-1,47.94.18,95.87,1.3c34.77.87,73.31-1.32,106.92,7.85a10.74,10.74,0,0,1,5.18,2.88c1.36,1.47,1.93,3.86.77,5.49-.88,1.23-2.46,1.71-3.93,2.08C371.89,99.33,361.07,99.87,350.36,100.74Z"/><polygon class="cls-2" points="68.19 0 126.74 0 118.78 27.47 107.22 10.12 92.77 69.39 102.88 69.39 101.44 77.34 58.07 77.34 58.07 69.08 66.37 69.4 81.15 8.68 63.03 25.85 68.19 0"/><path class="cls-2" d="M325.13,70.26,320.36,0H299.75L263.91,69.05v6.61h24.21L288,72l-9-9.31,2.46-9.11,21-.32V69.94l-7.95.32v5.4h36.08v-5.4Zm-41.2-22.47,16.13-36.92c-.15.46,1.24,36.92,1.24,36.92Z"/><path class="cls-2" d="M191.46,0l33.43.38-1,43.69L247.16,0l32.89.38V7l-8.84.46L256,74.63H222.65v-4.5H229l12.72-47.47-28.24,52h-11l-1.24-63.76H198l-9.46,52.9,8.68,10.08-22.65.78,8.54-11.48L195.81,6.21l-4-.31Z"/><polygon class="cls-2" points="125.84 0 125.84 6.37 135.92 6.37 121.19 69.67 113.89 69.67 113.89 75.72 170.36 75.72 175.64 50.58 155.94 69.51 146.16 69.51 150.2 40.34 159.19 40.97 162.76 51.83 170.83 22.5 167.42 21.88 161.21 35.07 151.44 35.38 160.28 6.37 170.05 6.21 178.43 27 185.72 0 125.84 0"/></g></g></svg>